<svg width="32" height="32" viewBox="0 0 32 32" fill="none" xmlns="http://www.w3.org/2000/svg">
<path d="M22.6667 26.6666H29.3334V23.9999C29.3334 21.7908 27.5425 19.9999 25.3334 19.9999C24.0592 19.9999 22.9242 20.5957 22.1917 21.5238M22.6667 26.6666H9.33335M22.6667 26.6666V23.9999C22.6667 23.1249 22.4981 22.2893 22.1917 21.5238M9.33335 26.6666H2.66669V23.9999C2.66669 21.7908 4.45755 19.9999 6.66669 19.9999C7.94083 19.9999 9.07583 20.5957 9.80835 21.5238M9.33335 26.6666V23.9999C9.33335 23.1249 9.50192 22.2893 9.80835 21.5238M9.80835 21.5238C10.7914 19.068 13.1931 17.3333 16 17.3333C18.8069 17.3333 21.2087 19.068 22.1917 21.5238M20 9.33325C20 11.5424 18.2092 13.3333 16 13.3333C13.7909 13.3333 12 11.5424 12 9.33325C12 7.12411 13.7909 5.33325 16 5.33325C18.2092 5.33325 20 7.12411 20 9.33325ZM28 13.3333C28 14.806 26.8061 15.9999 25.3334 15.9999C23.8606 15.9999 22.6667 14.806 22.6667 13.3333C22.6667 11.8605 23.8606 10.6666 25.3334 10.6666C26.8061 10.6666 28 11.8605 28 13.3333ZM9.33335 13.3333C9.33335 14.806 8.13945 15.9999 6.66669 15.9999C5.19393 15.9999 4.00002 14.806 4.00002 13.3333C4.00002 11.8605 5.19393 10.6666 6.66669 10.6666C8.13945 10.6666 9.33335 11.8605 9.33335 13.3333Z" stroke="#BBBBBB" stroke-width="2" stroke-linecap="round" stroke-linejoin="round"/>
</svg>
