<svg width="20" height="20" viewBox="0 0 20 20" fill="none" xmlns="http://www.w3.org/2000/svg">
<g clip-path="url(#clip0_2101_3835)">
<path d="M9.16663 3.33337H3.33329C2.89127 3.33337 2.46734 3.50897 2.15478 3.82153C1.84222 4.13409 1.66663 4.55801 1.66663 5.00004V16.6667C1.66663 17.1087 1.84222 17.5327 2.15478 17.8452C2.46734 18.1578 2.89127 18.3334 3.33329 18.3334H15C15.442 18.3334 15.8659 18.1578 16.1785 17.8452C16.491 17.5327 16.6666 17.1087 16.6666 16.6667V10.8334" stroke="#444444" stroke-width="2" stroke-linecap="round" stroke-linejoin="round"/>
<path d="M15.4166 2.08332C15.7481 1.7518 16.1978 1.56555 16.6666 1.56555C17.1355 1.56555 17.5851 1.7518 17.9166 2.08332C18.2481 2.41484 18.4344 2.86448 18.4344 3.33332C18.4344 3.80216 18.2481 4.2518 17.9166 4.58332L9.99996 12.5L6.66663 13.3333L7.49996 9.99999L15.4166 2.08332Z" stroke="#444444" stroke-width="2" stroke-linecap="round" stroke-linejoin="round"/>
</g>
<defs>
<clipPath id="clip0_2101_3835">
<rect width="20" height="20" fill="white"/>
</clipPath>
</defs>
</svg>
