<svg width="33" height="32" viewBox="0 0 33 32" fill="none" xmlns="http://www.w3.org/2000/svg">
<path d="M17.6313 3.66858C17.0065 3.04374 15.9934 3.04374 15.3686 3.66858L4.16858 14.8686C3.54374 15.4934 3.54374 16.5065 4.16858 17.1313C4.79342 17.7562 5.80648 17.7562 6.43132 17.1313L6.89995 16.6627V27.1999C6.89995 28.0836 7.6163 28.7999 8.49995 28.7999H11.7C12.5836 28.7999 13.3 28.0836 13.3 27.1999V24C13.3 23.1163 14.0163 22.4 14.9 22.4H18.1C18.9836 22.4 19.7 23.1163 19.7 24V27.1999C19.7 28.0836 20.4163 28.7999 21.2999 28.7999H24.5C25.3836 28.7999 26.0999 28.0836 26.0999 27.1999V16.6627L26.5686 17.1313C27.1934 17.7562 28.2065 17.7562 28.8313 17.1313C29.4562 16.5065 29.4562 15.4934 28.8313 14.8686L17.6313 3.66858Z" fill="#1B7FB5"/>
</svg>
