<svg width="33" height="32" viewBox="0 0 33 32" fill="none" xmlns="http://www.w3.org/2000/svg">
<path d="M4.5 16L7.16667 13.3333M7.16667 13.3333L16.5 4L25.8333 13.3333M7.16667 13.3333V26.6667C7.16667 27.403 7.76362 28 8.5 28H12.5M25.8333 13.3333L28.5 16M25.8333 13.3333V26.6667C25.8333 27.403 25.2364 28 24.5 28H20.5M12.5 28C13.2364 28 13.8333 27.403 13.8333 26.6667V21.3333C13.8333 20.597 14.4303 20 15.1667 20H17.8333C18.5697 20 19.1667 20.597 19.1667 21.3333V26.6667C19.1667 27.403 19.7636 28 20.5 28M12.5 28H20.5" stroke="#BBBBBB" stroke-width="2" stroke-linecap="round" stroke-linejoin="round"/>
</svg>
