<svg width="35" height="35" viewBox="0 0 35 35" fill="none" xmlns="http://www.w3.org/2000/svg">
<path d="M14.5833 8.75H7.29167C5.68084 8.75 4.375 10.0558 4.375 11.6667V24.7917C4.375 26.4025 5.68084 27.7083 7.29167 27.7083H27.7083C29.3192 27.7083 30.625 26.4025 30.625 24.7917V11.6667C30.625 10.0558 29.3192 8.75 27.7083 8.75H20.4167M14.5833 8.75V7.29167C14.5833 5.68084 15.8892 4.375 17.5 4.375C19.1108 4.375 20.4167 5.68084 20.4167 7.29167V8.75M14.5833 8.75C14.5833 10.3608 15.8892 11.6667 17.5 11.6667C19.1108 11.6667 20.4167 10.3608 20.4167 8.75M13.125 20.4167C14.7358 20.4167 16.0417 19.1108 16.0417 17.5C16.0417 15.8892 14.7358 14.5833 13.125 14.5833C11.5142 14.5833 10.2083 15.8892 10.2083 17.5C10.2083 19.1108 11.5142 20.4167 13.125 20.4167ZM13.125 20.4167C15.0299 20.4167 16.6504 21.6341 17.251 23.3333M13.125 20.4167C11.2201 20.4167 9.59947 21.6341 8.99887 23.3333M21.875 16.0417H26.25M21.875 21.875H24.7917" stroke="white" stroke-width="2" stroke-linecap="round" stroke-linejoin="round"/>
</svg>
