<svg width="33" height="32" viewBox="0 0 33 32" fill="none" xmlns="http://www.w3.org/2000/svg">
<path d="M16.5 6.99999C18.28 6.99999 20.0201 7.52783 21.5001 8.51676C22.9802 9.5057 24.1337 10.9113 24.8149 12.5558C25.4961 14.2004 25.6743 16.01 25.3271 17.7558C24.9798 19.5016 24.1226 21.1053 22.864 22.364C21.6053 23.6226 20.0016 24.4798 18.2558 24.8271C16.51 25.1743 14.7004 24.9961 13.0558 24.3149C11.4113 23.6337 10.0057 22.4802 9.01677 21.0001C8.02784 19.5201 7.5 17.78 7.5 16C7.5 15.6022 7.34196 15.2206 7.06066 14.9393C6.77936 14.658 6.39782 14.5 6 14.5C5.60218 14.5 5.22064 14.658 4.93934 14.9393C4.65804 15.2206 4.5 15.6022 4.5 16C4.50027 18.6925 5.40608 21.3068 7.07175 23.4223C8.73743 25.5378 11.0662 27.0316 13.6835 27.6636C16.3009 28.2955 19.0547 28.0289 21.5021 26.9065C23.9496 25.7841 25.9485 23.8713 27.1774 21.4755C28.4062 19.0797 28.7936 16.3403 28.2773 13.6977C27.761 11.0551 26.3709 8.66293 24.3307 6.90589C22.2904 5.14886 19.7185 4.12904 17.0286 4.01043C14.3386 3.89183 11.687 4.68134 9.5 6.25199V5.49999C9.5 5.10217 9.34196 4.72063 9.06066 4.43933C8.77936 4.15803 8.39782 3.99999 8 3.99999C7.60218 3.99999 7.22064 4.15803 6.93934 4.43933C6.65804 4.72063 6.5 5.10217 6.5 5.49999V10.5C6.5 11.328 7.172 12 8 12H11C11.3978 12 11.7794 11.842 12.0607 11.5607C12.342 11.2793 12.5 10.8978 12.5 10.5C12.5 10.1022 12.342 9.72063 12.0607 9.43933C11.7794 9.15803 11.3978 8.99999 11 8.99999H10.842C12.442 7.70278 14.4402 6.99648 16.5 6.99999ZM17.5 11.5C17.5 11.1022 17.342 10.7206 17.0607 10.4393C16.7794 10.158 16.3978 9.99999 16 9.99999C15.6022 9.99999 15.2206 10.158 14.9393 10.4393C14.658 10.7206 14.5 11.1022 14.5 11.5V16.5C14.5 17.328 15.172 18 16 18H19C19.3978 18 19.7794 17.842 20.0607 17.5606C20.342 17.2793 20.5 16.8978 20.5 16.5C20.5 16.1022 20.342 15.7206 20.0607 15.4393C19.7794 15.158 19.3978 15 19 15H17.5V11.5Z" fill="#BBBBBB"/>
</svg>
